<?xml version="1.0" encoding="UTF-8" standalone="no"?><!DOCTYPE svg PUBLIC "-//W3C//DTD SVG 1.1//EN" "http://www.w3.org/Graphics/SVG/1.1/DTD/svg11.dtd"><svg width="100%" height="100%" viewBox="0 0 20 20" version="1.1" xmlns="http://www.w3.org/2000/svg" xmlns:xlink="http://www.w3.org/1999/xlink" xml:space="preserve" xmlns:serif="http://www.serif.com/" style="fill-rule:evenodd;clip-rule:evenodd;stroke-linejoin:round;stroke-miterlimit:2;"><path d="M14.9,2c-1.749,1.639 -3.175,3.615 -4.2,5.818c0.332,1.19 0.566,2.406 0.7,3.636l0.7,-1.454c0,-2.109 2.8,-8 2.8,-8Zm-7.7,9.455c-0.84,-2.4 -1.89,-3.2 -4.2,-4.364c2.1,1.818 2.8,6.545 2.8,6.545c1.813,0.951 3.285,2.48 4.2,4.364c2.45,-5.891 -1.82,-12.218 -4.9,-16c1.47,3.782 2.1,5.455 2.1,9.455Zm4.9,2.181l0,2.182l2.8,-2.909c0,-2.4 0,-4.727 2.1,-6.545c-2.87,1.454 -4.9,5.6 -4.9,7.272Z"/></svg>