<?xml version="1.0" encoding="UTF-8" standalone="no"?><!DOCTYPE svg PUBLIC "-//W3C//DTD SVG 1.1//EN" "http://www.w3.org/Graphics/SVG/1.1/DTD/svg11.dtd"><svg width="100%" height="100%" viewBox="0 0 20 20" version="1.1" xmlns="http://www.w3.org/2000/svg" xmlns:xlink="http://www.w3.org/1999/xlink" xml:space="preserve" xmlns:serif="http://www.serif.com/" style="fill-rule:evenodd;clip-rule:evenodd;stroke-linejoin:round;stroke-miterlimit:2;"><path d="M15.882,10l-1.764,-2.353l1.176,0c2.079,0 4.706,-2.353 4.706,-2.353l-6.471,0l-1.764,1.765l1.176,4.117l2.941,-1.176Zm-3.631,-8.235l-4.567,-0l-0.625,1.176l2.941,3.53l2.941,-3.53l-0.69,-1.176Zm-1.663,5.882l-0.588,0.588l-0.588,-0.588l-1.765,8.823l2.353,1.765l2.353,-1.765l-1.765,-8.823Zm-6.47,2.353l1.764,-2.353l-1.176,-0c-2.08,-0 -4.706,-2.353 -4.706,-2.353l6.471,0l1.764,1.765l-1.176,4.117l-2.941,-1.176Z"/></svg>